# AST/ASF file generated using VICON BodyLanguage
# -----------------------------------------------
:version 1.10
:name VICON
:units
  mass 1.0
  length 0.45
  angle deg
:documentation
   .ast/.asf automatically generated from VICON data using
   VICON BodyBuilder and BodyLanguage model FoxedUp or BRILLIANT.MOD
:root
   order TX TY TZ RX RY RZ
   axis XYZ
   position 0 0 0  
   orientation 0 0 0 
:bonedata
  begin
     id 1 
     name lhipjoint
     direction 0.61522 -0.761478 0.204097 
     length 2.55743 
     axis 0 0 0  XYZ
  end
  begin
     id 2 
     name lfemur
     direction 0.34202 -0.939693 0  
     length 7.61162  
     axis 0 0 20  XYZ
    dof rx ry rz
    limits (-160.0 20.0)
           (-70.0 70.0)
           (-60.0 70.0)
  end
  begin
     id 3 
     name ltibia
     direction 0.34202 -0.939693 0   
     length 8.12393   
     axis 0 0 20   XYZ
    dof rx
    limits (-10.0 170.0)
  end
  begin
     id 4 
     name lfoot
     direction 0.0841971 -0.23133 0.969225   
     length 2.3572   
     axis -90 7.62852e-016 20   XYZ
    dof rx rz
    limits (-45.0 90.0)
           (-70.0 20.0)
  end
  begin
     id 5 
     name ltoes
     direction 1.53562e-011 -4.22209e-011 1   
     length 1.17993   
     axis -90 7.62852e-016 20   XYZ
    dof rx
    limits (-90.0 20.0)
  end
  begin
     id 6 
     name rhipjoint
     direction -0.625247 -0.75382 0.202044   
     length 2.58341  
     axis 0 0 0  XYZ 
  end
  begin
     id 7 
     name rfemur
     direction -0.34202 -0.939693 0   
     length 7.42147   
     axis 0 0 -20   XYZ
    dof rx ry rz
    limits (-160.0 20.0)
           (-70.0 70.0)
           (-70.0 60.0)
  end
  begin
     id 8 
     name rtibia
     direction -0.34202 -0.939693 0   
     length 8.20893   
     axis 0 0 -20   XYZ
    dof rx
    limits (-10.0 170.0)
 end
 begin
     id 9 
     name rfoot
     direction -0.124331 -0.341598 0.931586   
     length 2.45604  
     axis -90 -7.62852e-016 -20   XYZ
    dof rx rz
    limits (-45.0 90.0)
           (-20.0 70.0)
  end
  begin
     id 10 
     name rtoes
     direction -1.5353e-011 -4.2199e-011 1   
     length 1.21323   
     axis -90 -7.62852e-016 -20   XYZ
    dof rx
    limits (-90.0 20.0)
  end
  begin
     id 11 
     name lowerback
     direction -0.0218484 0.994884 -0.0986303   
     length 2.00523   
     axis 0 0 0   XYZ
    dof rx ry rz
    limits (-20.0 45.0)
           (-30.0 30.0)
           (-30.0 30.0)
  end
  begin
     id 12 
     name upperback
     direction -0.0097305 0.999717 -0.0217111   
     length 2.01352   
     axis 0 0 0   XYZ
    dof rx ry rz
    limits (-20.0 45.0)
           (-30.0 30.0)
           (-30.0 30.0)
  end
  begin
     id 13 
     name thorax
     direction -0.000928262 0.999699 0.0245198   
     length 2.02938   
     axis 0 0 0   XYZ
    dof rx ry rz
    limits (-20.0 45.0)
           (-30.0 30.0)
           (-30.0 30.0)
  end
  begin
     id 14 
     name lowerneck
     direction -0.0307979 0.998024 0.0547665   
     length 1.77263   
     axis 0 0 0   XYZ
    dof rx ry rz
    limits (-20.0 45.0)
           (-30.0 30.0)
           (-30.0 30.0)
  end
  begin
     id 15 
     name upperneck
     direction 0.0531587 0.996611 -0.0627734   
     length 1.77971   
     axis 0 0 0   XYZ
    dof rx ry rz
    limits (-20.0 45.0)
           (-30.0 30.0)
           (-30.0 30.0)
  end
  begin
     id 16
     name head
     direction 0.0213833 0.999404 -0.0271147  
     length 1.78263  
     axis 0 0 0   XYZ
    dof rx ry rz
    limits (-20.0 45.0)
           (-30.0 30.0)
           (-30.0 30.0)
  end
  begin
     id 17 
     name lclavicle
     direction 0.940017 0.332249 -0.0773233  
     length 3.73315  
     axis 0 0 0   XYZ
    dof ry rz
    limits (-20.0 10.0)
           (0.0 20.0)
  end
  begin
     id 18 
     name lhumerus
     direction 1 -4.48944e-011 7.52288e-028   
     length 5.40188   
     axis 180 -30 -90   XYZ
    dof rx ry rz
    limits (-60.0 90.0)
           (-90.0 90.0)
           (-90.0 90.0)
  end
  begin
     id 19
     name lradius
     direction 1 -4.48988e-011 1.48381e-027   
     length 3.68559   
     axis 180 -30 -90   XYZ
    dof rx
    limits (-10.0 170.0)
  end
  begin
     id 20
     name lwrist
     direction 1 -4.48925e-011 2.56952e-028   
     length 1.84279   
     axis -5.12785e-016 90 90   XYZ
    dof ry
    limits (-180.0 0.0)
 end
  begin
     id 21 
     name lhand
     direction 1 -4.49009e-011 5.13905e-028   
     length 0.61753   
     axis -3.27915e-016 90 90   XYZ
    dof rx rz
    limits (-90.0 90.0)
           (-45.0 45.0)
  end
  begin
     id 22 
     name lfingers
     direction 1 -4.49012e-011 1.02781e-027   
     length 0.497868   
     axis -6.5583e-016 90 90   XYZ
    dof rx
    limits (0.0 90.0)
  end
  begin
     id 23
     name lthumb
     direction 0.707107 -6.34987e-011 0.707107   
     length 0.714842   
     axis -90 45 2.85299e-015   XYZ
    dof rx rz
    limits (-45.0 45.0)
           (-45.0 45.0)
  end
  begin
     id 24 
     name rclavicle
     direction -0.9009 0.425937 -0.0834057   
     length 3.27864  
     axis 0 0 0   XYZ 
    dof ry rz
    limits (-10.0 20.0)
           (-20.0 0.0)
  end
  begin
     id 25 
     name rhumerus
     direction -1 -4.48953e-011 -1.03572e-027  
     length 6.1067   
     axis 180 30 90   XYZ
    dof rx ry rz
    limits (-90.0 60.0)
           (-90.0 90.0)
           (-90.0 90.0)
  end
  begin
     id 26 
     name rradius
     direction -1 -4.48975e-011 1.20742e-027   
     length 3.63052   
     axis 180 30 90   XYZ
    dof rx
    limits (-10.0 170.0)
  end
  begin
     id 27 
     name rwrist
     direction -1 -4.49017e-011 2.56952e-028   
     length 1.81526   
     axis -5.12785e-016 -90 -90   XYZ
    dof ry
    limits (-180.0 0.0)
  end
  begin
     id 28
     name rhand
     direction -1 -4.48832e-011 5.13905e-028   
     length 0.583848   
     axis -3.27915e-016 -90 -90   XYZ
    dof rx rz
    limits (-90.0 90.0)
           (-45.0 45.0)
  end
  begin
     id 29
     name rfingers
     direction -1 -4.48729e-011 1.02781e-027   
     length 0.470713   
     axis -6.5583e-016 -90 -90   XYZ
    dof rx
    limits (0.0 90.0)
  end
  begin
     id 30
     name rthumb
     direction -0.707107 -6.34964e-011 0.707107   
     length 0.675852   
     axis -90 -45 -2.85299e-015   XYZ
    dof rx rz
    limits (-45.0 45.0)
           (-45.0 45.0)
  end
:hierarchy
  begin
    root lhipjoint rhipjoint lowerback
    lhipjoint lfemur
    lfemur ltibia
    ltibia lfoot
    lfoot ltoes
    rhipjoint rfemur
    rfemur rtibia
    rtibia rfoot
    rfoot rtoes
    lowerback upperback
    upperback thorax
    thorax lowerneck lclavicle rclavicle
    lowerneck upperneck
    upperneck head
    lclavicle lhumerus
    lhumerus lradius
    lradius lwrist
    lwrist lhand lthumb
    lhand lfingers
    rclavicle rhumerus
    rhumerus rradius
    rradius rwrist
    rwrist rhand rthumb
    rhand rfingers
  end

#!OML:ASF F:\VICON\USERDATA\INSTALL\rory3\rory3.ASF
:FULLY-SPECIFIED
:DEGREES
1
root 0.189936 16.3812 -2.54321 -10.9896 -6.1819 1.98305
lowerback 13.7264 -0.825911 -2.73742
upperback 2.45543 -1.50663 -0.142738
thorax -5.03439 -0.703094 1.66412
lowerneck -8.28044 -0.615244 -6.136
upperneck 6.13263 -0.681107 7.15649
head 3.21758 -0.168251 3.14158
rclavicle 2.08413e-014 2.88238e-015
rhumerus 38.8038 -34.4896 -19.1767
rradius 104.658
rwrist 5.19868
rhand -44.2508 9.2198
rfingers 7.12502
rthumb -17.0627 -20.0509
lclavicle 2.08413e-014 2.88238e-015
lhumerus 38.5148 28.4273 28.0885
lradius 103.105
lwrist 24.3264
lhand -36.3002 13.1939
lfingers 7.12502
lthumb -9.39948 42.9643
rfemur -5.85794 23.4385 5.33305
rtibia 53.0112
rfoot -32.504 -10.7263
rtoes -26.7792
lfemur -8.54418 -6.22509 -7.10811
ltibia 59.13
lfoot -27.3655 -2.53475
ltoes -28.2786
2
root 0.224213 16.4512 -2.51971 -10.956 -6.36278 2.31812
lowerback 13.297 -0.723377 -2.94634
upperback 2.27205 -1.38573 -0.0724513
thorax -4.99051 -0.638615 1.82782
lowerneck -9.29467 -0.427052 -6.66103
upperneck 7.82013 -0.426366 7.62065
head 3.87797 -0.0103832 3.40259
rclavicle 1.77543e-014 9.93923e-016
rhumerus 37.9781 -33.185 -18.8431
rradius 104.01
rwrist 5.39212
rhand -43.9413 8.74775
rfingers 7.12502
rthumb -16.7647 -20.5484
lclavicle 1.77543e-014 9.93923e-016
lhumerus 36.5584 26.4863 27.4242
lradius 103.145
lwrist 23.9432
lhand -36.3448 13.2353
lfingers 7.12502
lthumb -9.44254 43.0038
rfemur -5.43215 23.4113 4.76291
rtibia 51.8845
rfoot -31.8097 -10.1697
rtoes -26.3917
lfemur -7.78339 -5.98809 -7.737
ltibia 57.8516
lfoot -27.2598 -2.09722
ltoes -28.0744
3
root 0.259937 16.5447 -2.49573 -10.7573 -6.62943 2.48521
lowerback 12.7139 -0.637502 -2.89288
upperback 2.0436 -1.24538 -0.0137818
thorax -4.91686 -0.568677 1.82639
lowerneck -9.63711 -0.297969 -6.62512
upperneck 8.66577 -0.264741 7.49887
head 4.17913 0.0721606 3.37878
rclavicle -1.26321e-014 3.97569e-016
rhumerus 36.9199 -31.8282 -18.6449
rradius 103.274
rwrist 5.54699
rhand -43.512 8.14134
rfingers 7.12502
rthumb -16.3514 -21.1894
lclavicle -1.26321e-014 3.97569e-016
lhumerus 34.4815 24.5128 26.7603
lradius 102.99
lwrist 23.7739
lhand -36.0958 12.9915
lfingers 7.12502
lthumb -9.2022 42.7707
rfemur -5.15235 23.4311 4.37042
rtibia 50.6758
rfoot -30.6462 -9.94224
rtoes -26.8287
lfemur -7.15051 -5.58206 -8.19397
ltibia 56.5157
lfoot -26.9224 -1.41476
ltoes -28.1
4
root 0.296981 16.6634 -2.46921 -10.4261 -7.06973 2.32037
lowerback 12.0124 -0.546743 -2.46625
upperback 1.82386 -1.04204 0.137869
thorax -4.77538 -0.474412 1.70123
lowerneck -9.80885 -0.182029 -6.50296
upperneck 9.17259 -0.116065 7.28896
head 4.35109 0.141518 3.30892
rclavicle -2.8917e-014 6.36111e-015
rhumerus 35.8184 -30.5363 -18.6181
rradius 102.41
rwrist 5.79963
rhand -43.1657 7.5726
rfingers 7.12502
rthumb -16.0179 -21.7852
lclavicle -2.8917e-014 6.36111e-015
lhumerus 32.3212 22.5716 26.1715
lradius 102.664
lwrist 23.6854
lhand -35.9718 12.6519
lfingers 7.12502
lthumb -9.08259 42.4363
rfemur -5.05858 23.6462 4.38023
rtibia 49.4525
rfoot -29.245 -9.69867
rtoes -27.4745
lfemur -6.59331 -5.01488 -8.23241
ltibia 55.1443
lfoot -26.2846 -1.02081
ltoes -27.5928
5
root 0.32979 16.8021 -2.44425 -10.0113 -7.59614 1.85081
lowerback 11.3992 -0.459359 -1.79122
upperback 1.54347 -0.816045 0.387932
thorax -4.74594 -0.370424 1.54002
lowerneck -10.0931 -0.0920443 -6.39751
upperneck 9.76614 0.000266402 7.11024
head 4.57173 0.197523 3.25187
rclavicle -2.67738e-015 1.47101e-014
rhumerus 34.5364 -29.1722 -18.6167
rradius 101.389
rwrist 5.95623
rhand -43.0453 6.96767
rfingers 7.12502
rthumb -15.902 -22.3994
lclavicle -2.67738e-015 1.47101e-014
lhumerus 29.9364 20.6248 25.7233
lradius 102.257
lwrist 23.548
lhand -35.871 12.4656
lfingers 7.12502
lthumb -8.98534 42.2542
rfemur -5.03773 24.0659 4.79629
rtibia 48.2123
rfoot -27.6055 -9.36196
rtoes -27.2997
lfemur -6.125 -4.39602 -7.86215
ltibia 53.7474
lfoot -25.2701 -0.816288
ltoes -26.9219
6
root 0.361843 16.962 -2.41913 -9.61853 -7.99933 1.49172
lowerback 10.9147 -0.378539 -1.21489
upperback 1.21796 -0.622461 0.580384
thorax -4.82907 -0.280572 1.38329
lowerneck -10.5036 -0.0168131 -6.13703
upperneck 10.4529 0.092013 6.80706
head 4.84559 0.240937 3.13115
rclavicle -8.80865e-015 -2.0276e-014
rhumerus 32.8978 -27.7565 -18.5341
rradius 100.319
rwrist 5.88892
rhand -42.9229 6.50038
rfingers 7.12502
rthumb -15.7841 -22.8761
lclavicle -8.80865e-015 -2.0276e-014
lhumerus 27.4801 18.6566 25.4487
lradius 101.645
lwrist 23.4216
lhand -35.4818 12.7387
lfingers 7.12502
lthumb -8.60971 42.5432
rfemur -4.93309 24.5434 5.13867
rtibia 46.9722
rfoot -25.8263 -9.14973
rtoes -27.3643
lfemur -5.64353 -3.91495 -7.64154
ltibia 52.3019
lfoot -24.0152 -0.535855
ltoes -26.8488
